<?xml version="1.0" encoding="UTF-8" standalone="no"?>
<!DOCTYPE svg PUBLIC "-//W3C//DTD SVG 1.1//EN"
 "http://www.w3.org/Graphics/SVG/1.1/DTD/svg11.dtd">
<!-- Generated by graphviz version 2.38.0 (20140413.2041)
 -->
<!-- Title: Lab17_Control.c Pages: 1 -->
<!--zoomable 84 -->
<svg id="main" version="1.1" xmlns="http://www.w3.org/2000/svg" xmlns:xlink="http://www.w3.org/1999/xlink" xml:space="preserve" onload="init(evt)">
<style type="text/css"><![CDATA[
.edge:hover path { stroke: red; }
.edge:hover polygon { stroke: red; fill: red; }
]]></style>
<script type="text/javascript"><![CDATA[
var edges = document.getElementsByTagName('g');
if (edges && edges.length) {
  for (var i=0;i<edges.length;i++) {
    if (edges[i].id.substr(0,4)=='edge') {
      edges[i].setAttribute('class','edge');
    }
  }
}
]]></script>
        <defs>
                <circle id="rim" cx="0" cy="0" r="7"/>
                <circle id="rim2" cx="0" cy="0" r="3.5"/>
                <g id="zoomPlus">
                        <use xlink:href="#rim" fill="#404040">
                                <set attributeName="fill" to="#808080" begin="zoomplus.mouseover" end="zoomplus.mouseout"/>
                        </use>
                        <path d="M-4,0h8M0,-4v8" fill="none" stroke="white" stroke-width="1.5" pointer-events="none"/>
                </g>
                <g id="zoomMin">
                        <use xlink:href="#rim" fill="#404040">
                                <set attributeName="fill" to="#808080" begin="zoomminus.mouseover" end="zoomminus.mouseout"/>
                        </use>
                        <path d="M-4,0h8" fill="none" stroke="white" stroke-width="1.5" pointer-events="none"/>
                </g>
                <g id="dirArrow">
                        <path fill="none" stroke="white" stroke-width="1.5" d="M0,-3.0v7 M-2.5,-0.5L0,-3.0L2.5,-0.5"/>
                </g>
               <g id="resetDef">
                       <use xlink:href="#rim2" fill="#404040">
                               <set attributeName="fill" to="#808080" begin="reset.mouseover" end="reset.mouseout"/>
                       </use>
               </g>
        </defs>

<script type="text/javascript">
var viewWidth = 1810;
var viewHeight = 84;
var sectionId = 'dynsection-0';
</script>
<script xlink:href="svgpan.js"/>
<svg id="graph" class="graph">
<g id="viewport">
<title>Lab17_Control.c</title>
<polygon fill="white" stroke="none" points="-4,4 -4,-80 1806,-80 1806,4 -4,4"/>
<!-- Node0 -->
<g id="node1" class="node"><title>Node0</title>
<g id="a_node1"><a xlink:title=" ">
<polygon fill="#bfbfbf" stroke="black" points="766,-56.5 766,-75.5 853,-75.5 853,-56.5 766,-56.5"/>
<text text-anchor="middle" x="809.5" y="-63.5" font-family="Helvetica,sans-Serif" font-size="10.00">Lab17_Control.c</text>
</a>
</g>
</g>
<!-- Node1 -->
<g id="node2" class="node"><title>Node1</title>
<g id="a_node2"><a xlink:title=" ">
<polygon fill="white" stroke="#bfbfbf" points="0,-0.5 0,-19.5 49,-19.5 49,-0.5 0,-0.5"/>
<text text-anchor="middle" x="24.5" y="-7.5" font-family="Helvetica,sans-Serif" font-size="10.00">stdint.h</text>
</a>
</g>
</g>
<!-- Node0&#45;&gt;Node1 -->
<g id="edge1" class="edge"><title>Node0&#45;&gt;Node1</title>
<path fill="none" stroke="midnightblue" d="M765.993,-65.4025C651.552,-65.8218 332.718,-62.8614 59.3726,-19.779"/>
<polygon fill="midnightblue" stroke="midnightblue" points="59.687,-16.2849 49.26,-18.1633 58.5826,-23.1972 59.687,-16.2849"/>
</g>
<!-- Node2 -->
<g id="node3" class="node"><title>Node2</title>
<g id="a_node3"><a xlink:title=" ">
<polygon fill="white" stroke="#bfbfbf" points="67.5,-0.5 67.5,-19.5 111.5,-19.5 111.5,-0.5 67.5,-0.5"/>
<text text-anchor="middle" x="89.5" y="-7.5" font-family="Helvetica,sans-Serif" font-size="10.00">msp.h</text>
</a>
</g>
</g>
<!-- Node0&#45;&gt;Node2 -->
<g id="edge2" class="edge"><title>Node0&#45;&gt;Node2</title>
<path fill="none" stroke="midnightblue" d="M765.98,-65.4199C658.032,-65.7671 369.393,-62.4497 121.623,-19.8066"/>
<polygon fill="midnightblue" stroke="midnightblue" points="122.168,-16.3489 111.715,-18.0764 120.963,-23.2445 122.168,-16.3489"/>
</g>
<!-- Node3 -->
<g id="node4" class="node"><title>Node3</title>
<g id="a_node4"><a xlink:title=" ">
<polygon fill="white" stroke="#bfbfbf" points="129.5,-0.5 129.5,-19.5 203.5,-19.5 203.5,-0.5 129.5,-0.5"/>
<text text-anchor="middle" x="166.5" y="-7.5" font-family="Helvetica,sans-Serif" font-size="10.00">../inc/Clock.h</text>
</a>
</g>
</g>
<!-- Node0&#45;&gt;Node3 -->
<g id="edge3" class="edge"><title>Node0&#45;&gt;Node3</title>
<path fill="none" stroke="midnightblue" d="M765.87,-63.4756C668.554,-59.6964 426.239,-48.1859 213.693,-20.0023"/>
<polygon fill="midnightblue" stroke="midnightblue" points="213.971,-16.5084 203.595,-18.6476 213.04,-23.4462 213.971,-16.5084"/>
</g>
<!-- Node4 -->
<g id="node5" class="node"><title>Node4</title>
<g id="a_node5"><a xlink:title=" ">
<polygon fill="white" stroke="#bfbfbf" points="221.5,-0.5 221.5,-19.5 307.5,-19.5 307.5,-0.5 221.5,-0.5"/>
<text text-anchor="middle" x="264.5" y="-7.5" font-family="Helvetica,sans-Serif" font-size="10.00">../inc/CortexM.h</text>
</a>
</g>
</g>
<!-- Node0&#45;&gt;Node4 -->
<g id="edge4" class="edge"><title>Node0&#45;&gt;Node4</title>
<path fill="none" stroke="midnightblue" d="M765.843,-62.1985C681.329,-56.5187 489.299,-42.3661 317.567,-20.0417"/>
<polygon fill="midnightblue" stroke="midnightblue" points="317.96,-16.5633 307.589,-18.7323 317.049,-23.5038 317.96,-16.5633"/>
</g>
<!-- Node5 -->
<g id="node6" class="node"><title>Node5</title>
<g id="a_node6"><a xlink:title=" ">
<polygon fill="white" stroke="#bfbfbf" points="325.5,-0.5 325.5,-19.5 399.5,-19.5 399.5,-0.5 325.5,-0.5"/>
<text text-anchor="middle" x="362.5" y="-7.5" font-family="Helvetica,sans-Serif" font-size="10.00">../inc/PWM.h</text>
</a>
</g>
</g>
<!-- Node0&#45;&gt;Node5 -->
<g id="edge5" class="edge"><title>Node0&#45;&gt;Node5</title>
<path fill="none" stroke="midnightblue" d="M765.733,-61.2652C693.658,-54.8583 545.284,-40.5907 409.76,-20.0817"/>
<polygon fill="midnightblue" stroke="midnightblue" points="410.026,-16.5816 399.612,-18.5303 408.968,-23.5013 410.026,-16.5816"/>
</g>
<!-- Node6 -->
<g id="node7" class="node"><title>Node6</title>
<g id="a_node7"><a xlink:title=" ">
<polygon fill="white" stroke="#bfbfbf" points="417.5,-0.5 417.5,-19.5 515.5,-19.5 515.5,-0.5 417.5,-0.5"/>
<text text-anchor="middle" x="466.5" y="-7.5" font-family="Helvetica,sans-Serif" font-size="10.00">../inc/LaunchPad.h</text>
</a>
</g>
</g>
<!-- Node0&#45;&gt;Node6 -->
<g id="edge6" class="edge"><title>Node0&#45;&gt;Node6</title>
<path fill="none" stroke="midnightblue" d="M765.71,-58.106C704.727,-48.5051 594.041,-31.0793 525.735,-20.3256"/>
<polygon fill="midnightblue" stroke="midnightblue" points="525.986,-16.8221 515.563,-18.7242 524.897,-23.7369 525.986,-16.8221"/>
</g>
<!-- Node7 -->
<g id="node8" class="node"><title>Node7</title>
<g id="a_node8"><a xlink:title=" ">
<polygon fill="white" stroke="#bfbfbf" points="533.5,-0.5 533.5,-19.5 613.5,-19.5 613.5,-0.5 533.5,-0.5"/>
<text text-anchor="middle" x="573.5" y="-7.5" font-family="Helvetica,sans-Serif" font-size="10.00">../inc/UART0.h</text>
</a>
</g>
</g>
<!-- Node0&#45;&gt;Node7 -->
<g id="edge7" class="edge"><title>Node0&#45;&gt;Node7</title>
<path fill="none" stroke="midnightblue" d="M772.105,-56.4435C731.108,-47.0629 665.246,-31.9926 620.716,-21.8036"/>
<polygon fill="midnightblue" stroke="midnightblue" points="621.249,-18.3352 610.72,-19.5164 619.687,-25.1588 621.249,-18.3352"/>
</g>
<!-- Node8 -->
<g id="node9" class="node"><title>Node8</title>
<g id="a_node9"><a xlink:title=" ">
<polygon fill="white" stroke="#bfbfbf" points="631.5,-0.5 631.5,-19.5 705.5,-19.5 705.5,-0.5 631.5,-0.5"/>
<text text-anchor="middle" x="668.5" y="-7.5" font-family="Helvetica,sans-Serif" font-size="10.00">../inc/Motor.h</text>
</a>
</g>
</g>
<!-- Node0&#45;&gt;Node8 -->
<g id="edge8" class="edge"><title>Node0&#45;&gt;Node8</title>
<path fill="none" stroke="midnightblue" d="M787.158,-56.4435C763.747,-47.4776 726.764,-33.314 700.31,-23.1827"/>
<polygon fill="midnightblue" stroke="midnightblue" points="701.328,-19.8245 690.737,-19.5164 698.824,-26.3615 701.328,-19.8245"/>
</g>
<!-- Node9 -->
<g id="node10" class="node"><title>Node9</title>
<g id="a_node10"><a xlink:title=" ">
<polygon fill="white" stroke="#bfbfbf" points="724,-0.5 724,-19.5 799,-19.5 799,-0.5 724,-0.5"/>
<text text-anchor="middle" x="761.5" y="-7.5" font-family="Helvetica,sans-Serif" font-size="10.00">../inc/Bump.h</text>
</a>
</g>
</g>
<!-- Node0&#45;&gt;Node9 -->
<g id="edge9" class="edge"><title>Node0&#45;&gt;Node9</title>
<path fill="none" stroke="midnightblue" d="M801.574,-56.083C794.654,-48.2982 784.435,-36.8015 776.048,-27.3665"/>
<polygon fill="midnightblue" stroke="midnightblue" points="778.538,-24.8999 769.279,-19.7511 773.306,-29.5505 778.538,-24.8999"/>
</g>
<!-- Node10 -->
<g id="node11" class="node"><title>Node10</title>
<g id="a_node11"><a xlink:title=" ">
<polygon fill="white" stroke="#bfbfbf" points="817.5,-0.5 817.5,-19.5 897.5,-19.5 897.5,-0.5 817.5,-0.5"/>
<text text-anchor="middle" x="857.5" y="-7.5" font-family="Helvetica,sans-Serif" font-size="10.00">../inc/ADC14.h</text>
</a>
</g>
</g>
<!-- Node0&#45;&gt;Node10 -->
<g id="edge10" class="edge"><title>Node0&#45;&gt;Node10</title>
<path fill="none" stroke="midnightblue" d="M817.426,-56.083C824.346,-48.2982 834.565,-36.8015 842.952,-27.3665"/>
<polygon fill="midnightblue" stroke="midnightblue" points="845.694,-29.5505 849.721,-19.7511 840.462,-24.8999 845.694,-29.5505"/>
</g>
<!-- Node11 -->
<g id="node12" class="node"><title>Node11</title>
<g id="a_node12"><a xlink:title=" ">
<polygon fill="white" stroke="#bfbfbf" points="915.5,-0.5 915.5,-19.5 1001.5,-19.5 1001.5,-0.5 915.5,-0.5"/>
<text text-anchor="middle" x="958.5" y="-7.5" font-family="Helvetica,sans-Serif" font-size="10.00">../inc/TimerA1.h</text>
</a>
</g>
</g>
<!-- Node0&#45;&gt;Node11 -->
<g id="edge11" class="edge"><title>Node0&#45;&gt;Node11</title>
<path fill="none" stroke="midnightblue" d="M833.109,-56.4435C857.958,-47.4381 897.274,-33.1891 925.254,-23.049"/>
<polygon fill="midnightblue" stroke="midnightblue" points="926.792,-26.2144 935.001,-19.5164 924.407,-19.6332 926.792,-26.2144"/>
</g>
<!-- Node12 -->
<g id="node13" class="node"><title>Node12</title>
<g id="a_node13"><a xlink:title=" ">
<polygon fill="white" stroke="#bfbfbf" points="1020,-0.5 1020,-19.5 1117,-19.5 1117,-0.5 1020,-0.5"/>
<text text-anchor="middle" x="1068.5" y="-7.5" font-family="Helvetica,sans-Serif" font-size="10.00">../inc/IRDistance.h</text>
</a>
</g>
</g>
<!-- Node0&#45;&gt;Node12 -->
<g id="edge12" class="edge"><title>Node0&#45;&gt;Node12</title>
<path fill="none" stroke="midnightblue" d="M850.539,-56.4435C895.816,-47.0036 968.727,-31.802 1017.61,-21.6111"/>
<polygon fill="midnightblue" stroke="midnightblue" points="1018.58,-24.9839 1027.65,-19.5164 1017.15,-18.1312 1018.58,-24.9839"/>
</g>
<!-- Node13 -->
<g id="node14" class="node"><title>Node13</title>
<g id="a_node14"><a xlink:title=" ">
<polygon fill="white" stroke="#bfbfbf" points="1135,-0.5 1135,-19.5 1230,-19.5 1230,-0.5 1135,-0.5"/>
<text text-anchor="middle" x="1182.5" y="-7.5" font-family="Helvetica,sans-Serif" font-size="10.00">../inc/Nokia5110.h</text>
</a>
</g>
</g>
<!-- Node0&#45;&gt;Node13 -->
<g id="edge13" class="edge"><title>Node0&#45;&gt;Node13</title>
<path fill="none" stroke="midnightblue" d="M853.122,-59.0653C912.363,-50.9489 1021.83,-35.7502 1124.9,-20.2224"/>
<polygon fill="midnightblue" stroke="midnightblue" points="1125.49,-23.6734 1134.85,-18.7189 1124.44,-16.752 1125.49,-23.6734"/>
</g>
<!-- Node14 -->
<g id="node15" class="node"><title>Node14</title>
<g id="a_node15"><a xlink:title=" ">
<polygon fill="white" stroke="#bfbfbf" points="1248.5,-0.5 1248.5,-19.5 1316.5,-19.5 1316.5,-0.5 1248.5,-0.5"/>
<text text-anchor="middle" x="1282.5" y="-7.5" font-family="Helvetica,sans-Serif" font-size="10.00">../inc/LPF.h</text>
</a>
</g>
</g>
<!-- Node0&#45;&gt;Node14 -->
<g id="edge14" class="edge"><title>Node0&#45;&gt;Node14</title>
<path fill="none" stroke="midnightblue" d="M853.025,-61.9217C929.126,-56.2188 1091.47,-42.6294 1238.2,-20.0588"/>
<polygon fill="midnightblue" stroke="midnightblue" points="1238.95,-23.4849 1248.29,-18.4887 1237.87,-16.5682 1238.95,-23.4849"/>
</g>
<!-- Node15 -->
<g id="node16" class="node"><title>Node15</title>
<g id="a_node16"><a xlink:title=" ">
<polygon fill="white" stroke="#bfbfbf" points="1334.5,-0.5 1334.5,-19.5 1444.5,-19.5 1444.5,-0.5 1334.5,-0.5"/>
<text text-anchor="middle" x="1389.5" y="-7.5" font-family="Helvetica,sans-Serif" font-size="10.00">../inc/FlashProgram.h</text>
</a>
</g>
</g>
<!-- Node0&#45;&gt;Node15 -->
<g id="edge15" class="edge"><title>Node0&#45;&gt;Node15</title>
<path fill="none" stroke="midnightblue" d="M853.069,-61.9797C940.405,-55.7566 1143.32,-40.4504 1324.39,-20.0713"/>
<polygon fill="midnightblue" stroke="midnightblue" points="1324.82,-23.5452 1334.37,-18.9413 1324.03,-16.5897 1324.82,-23.5452"/>
</g>
<!-- Node16 -->
<g id="node17" class="node"><title>Node16</title>
<g id="a_node17"><a xlink:title=" ">
<polygon fill="white" stroke="#bfbfbf" points="1463,-0.5 1463,-19.5 1564,-19.5 1564,-0.5 1463,-0.5"/>
<text text-anchor="middle" x="1513.5" y="-7.5" font-family="Helvetica,sans-Serif" font-size="10.00">../inc/SysTickInts.h</text>
</a>
</g>
</g>
<!-- Node0&#45;&gt;Node16 -->
<g id="edge16" class="edge"><title>Node0&#45;&gt;Node16</title>
<path fill="none" stroke="midnightblue" d="M853.335,-63.1352C956.115,-58.5055 1220.82,-45.0892 1452.82,-19.9826"/>
<polygon fill="midnightblue" stroke="midnightblue" points="1453.24,-23.4582 1462.8,-18.8935 1452.48,-16.4995 1453.24,-23.4582"/>
</g>
<!-- Node17 -->
<g id="node18" class="node"><title>Node17</title>
<g id="a_node18"><a xlink:title=" ">
<polygon fill="white" stroke="#bfbfbf" points="1582,-0.5 1582,-19.5 1683,-19.5 1683,-0.5 1582,-0.5"/>
<text text-anchor="middle" x="1632.5" y="-7.5" font-family="Helvetica,sans-Serif" font-size="10.00">../inc/Tachometer.h</text>
</a>
</g>
</g>
<!-- Node0&#45;&gt;Node17 -->
<g id="edge17" class="edge"><title>Node0&#45;&gt;Node17</title>
<path fill="none" stroke="midnightblue" d="M853.116,-63.8443C968.643,-60.4814 1292.28,-49.1021 1571.36,-20.1378"/>
<polygon fill="midnightblue" stroke="midnightblue" points="1572.11,-23.579 1581.69,-19.0559 1571.38,-16.6171 1572.11,-23.579"/>
</g>
<!-- Node18 -->
<g id="node19" class="node"><title>Node18</title>
<g id="a_node19"><a xlink:title=" ">
<polygon fill="white" stroke="#bfbfbf" points="1701,-0.5 1701,-19.5 1802,-19.5 1802,-0.5 1701,-0.5"/>
<text text-anchor="middle" x="1751.5" y="-7.5" font-family="Helvetica,sans-Serif" font-size="10.00">../inc/Reflectance.h</text>
</a>
</g>
</g>
<!-- Node0&#45;&gt;Node18 -->
<g id="edge18" class="edge"><title>Node0&#45;&gt;Node18</title>
<path fill="none" stroke="midnightblue" d="M853.26,-64.3244C980.82,-62.0245 1363.46,-52.7797 1690.54,-20.1047"/>
<polygon fill="midnightblue" stroke="midnightblue" points="1691.09,-23.5672 1700.69,-19.0816 1690.39,-16.6025 1691.09,-23.5672"/>
</g>
</g>
</svg>
        <g id="navigator" transform="translate(0 0)" fill="#404254">
                <rect fill="#f2f5e9" fill-opacity="0.5" stroke="#606060" stroke-width=".5" x="0" y="0" width="60" height="60"/>
                <use id="zoomplus" xlink:href="#zoomPlus" x="17" y="9" onmousedown="handleZoom(evt,'in')"/>
                <use id="zoomminus" xlink:href="#zoomMin" x="42" y="9" onmousedown="handleZoom(evt,'out')"/>
                <use id="reset" xlink:href="#resetDef" x="30" y="36" onmousedown="handleReset()"/>
                <g id="arrowUp" xlink:href="#dirArrow" transform="translate(30 24)" onmousedown="handlePan(0,-1)">
                  <use xlink:href="#rim" fill="#404040">
                        <set attributeName="fill" to="#808080" begin="arrowUp.mouseover" end="arrowUp.mouseout"/>
                  </use>
                  <path fill="none" stroke="white" stroke-width="1.5" d="M0,-3.0v7 M-2.5,-0.5L0,-3.0L2.5,-0.5"/>
                </g>
                <g id="arrowRight" xlink:href="#dirArrow" transform="rotate(90) translate(36 -43)" onmousedown="handlePan(1,0)">
                  <use xlink:href="#rim" fill="#404040">
                        <set attributeName="fill" to="#808080" begin="arrowRight.mouseover" end="arrowRight.mouseout"/>
                  </use>
                  <path fill="none" stroke="white" stroke-width="1.5" d="M0,-3.0v7 M-2.5,-0.5L0,-3.0L2.5,-0.5"/>
                </g>
                <g id="arrowDown" xlink:href="#dirArrow" transform="rotate(180) translate(-30 -48)" onmousedown="handlePan(0,1)">
                  <use xlink:href="#rim" fill="#404040">
                        <set attributeName="fill" to="#808080" begin="arrowDown.mouseover" end="arrowDown.mouseout"/>
                  </use>
                  <path fill="none" stroke="white" stroke-width="1.5" d="M0,-3.0v7 M-2.5,-0.5L0,-3.0L2.5,-0.5"/>
                </g>
                <g id="arrowLeft" xlink:href="#dirArrow" transform="rotate(270) translate(-36 17)" onmousedown="handlePan(-1,0)">
                  <use xlink:href="#rim" fill="#404040">
                        <set attributeName="fill" to="#808080" begin="arrowLeft.mouseover" end="arrowLeft.mouseout"/>
                  </use>
                  <path fill="none" stroke="white" stroke-width="1.5" d="M0,-3.0v7 M-2.5,-0.5L0,-3.0L2.5,-0.5"/>
                </g>
        </g>
        <svg viewBox="0 0 15 15" width="100%" height="30px" preserveAspectRatio="xMaxYMin meet">
         <g id="arrow_out" transform="scale(0.3 0.3)">
          <a xlink:href="_lab17___control_8c__incl_org.svg" target="_base">
           <rect id="button" ry="5" rx="5" y="6" x="6" height="38" width="38"
                fill="#f2f5e9" fill-opacity="0.5" stroke="#606060" stroke-width="1.0"/>
           <path id="arrow"
             d="M 11.500037,31.436501 C 11.940474,20.09759 22.043105,11.32322 32.158766,21.979434 L 37.068811,17.246167 C 37.068811,17.246167 37.088388,32 37.088388,32 L 22.160133,31.978069 C 22.160133,31.978069 26.997745,27.140456 26.997745,27.140456 C 18.528582,18.264221 13.291696,25.230495 11.500037,31.436501 z"
             style="fill:#404040;"/>
          </a>
         </g>
        </svg>
</svg>
